<svg width="20" height="20" viewBox="0 0 20 20" fill="none" xmlns="http://www.w3.org/2000/svg">
<g id="Layer_1" clip-path="url(#clip0_1_3038)">
<path id="Vector" d="M10 20C7.325 20 4.81667 18.9583 2.925 17.075C1.04167 15.1833 0 12.675 0 10C0 7.325 1.04167 4.81667 2.925 2.925C4.81667 1.04167 7.325 0 10 0C12.675 0 15.1833 1.04167 17.075 2.925C18.9667 4.81667 20 7.325 20 10C20 12.675 18.9583 15.1833 17.075 17.075C15.1833 18.9667 12.675 20 10 20ZM10 1.54167C7.74167 1.54167 5.61667 2.425 4.01667 4.01667C2.41667 5.60833 1.54167 7.74167 1.54167 10C1.54167 12.2583 2.425 14.3833 4.01667 15.9833C5.61667 17.5833 7.74167 18.4583 10 18.4583C12.2583 18.4583 14.3833 17.575 15.9833 15.9833C17.5833 14.3833 18.4583 12.2583 18.4583 10C18.4583 7.74167 17.575 5.61667 15.9833 4.01667C14.3833 2.41667 12.2583 1.54167 10 1.54167ZM8.975 14.875C8.775 14.875 8.58333 14.8 8.43333 14.65L4.33333 10.55C4.25833 10.475 4.2 10.3833 4.16667 10.2917C4.13333 10.2083 4.11667 10.125 4.11667 10.0333C4.11667 10.0333 4.11667 10.0167 4.11667 10.0083C4.11667 10 4.11667 9.99167 4.11667 9.98333C4.11667 9.89167 4.14167 9.80833 4.16667 9.725C4.20833 9.63333 4.25833 9.54167 4.33333 9.46667L8.43333 5.36667C8.73333 5.06667 9.21667 5.06667 9.525 5.36667C9.83333 5.66667 9.825 6.15 9.525 6.45833L6.73333 9.25H15.1333C15.5583 9.25 15.9 9.59167 15.9 10.0167C15.9 10.4417 15.5583 10.7833 15.1333 10.7833H6.73333L9.525 13.575C9.825 13.875 9.825 14.3583 9.525 14.6667C9.375 14.8167 9.175 14.8917 8.98333 14.8917L8.975 14.875Z" fill="#006C9D"/>
</g>
<defs>
<clipPath id="clip0_1_3038">
<rect width="20" height="20" fill="white"/>
</clipPath>
</defs>
</svg>
