<svg width="55" height="55" viewBox="0 0 55 55" fill="none" xmlns="http://www.w3.org/2000/svg">
<g id="Group 106">
<circle id="Ellipse 9" cx="20" cy="35" r="20" fill="#2DBAD4" fill-opacity="0.5"/>
<g id="g1578">
<g id="g1580">
<g id="Clip path group">
<mask id="mask0_1_384" style="mask-type:luminance" maskUnits="userSpaceOnUse" x="15" y="0" width="40" height="40">
<g id="clipPath1586">
<path id="path1584" d="M15 0H55V40H15V0Z" fill="white"/>
</g>
</mask>
<g mask="url(#mask0_1_384)">
<g id="g1582">
<g id="g1588">
<path id="path1590" d="M32.5636 38.8281H16.1714L22.0065 29.2117L24.3675 25.3203L32.5636 38.8281Z" stroke="#006C9D" stroke-width="2" stroke-miterlimit="10" stroke-linecap="round" stroke-linejoin="round"/>
</g>
<g id="g1592">
<path id="path1594" d="M37.4361 38.8281H32.5635" stroke="#006C9D" stroke-width="2" stroke-miterlimit="10" stroke-linecap="round" stroke-linejoin="round"/>
</g>
</g>
</g>
</g>
</g>
<g id="g1596">
<path id="path1598" d="M41.173 22.5508L37.1505 20.779L34.9996 23.8469L32.8488 20.779L28.8262 22.5516L34.9996 11.9719L41.173 22.5508Z" stroke="#006C9D" stroke-width="2" stroke-miterlimit="10" stroke-linecap="round" stroke-linejoin="round"/>
</g>
<g id="g1600">
<g id="Clip path group_2">
<mask id="mask1_1_384" style="mask-type:luminance" maskUnits="userSpaceOnUse" x="15" y="0" width="40" height="40">
<g id="clipPath1606">
<path id="path1604" d="M15 0H55V40H15V0Z" fill="white"/>
</g>
</mask>
<g mask="url(#mask1_1_384)">
<g id="g1602">
<g id="g1608">
<path id="path1610" d="M53.8287 38.8281H37.4365L43.2717 29.2117L44.074 27.8891L45.6326 25.3203L47.9936 29.2117L53.8287 38.8281Z" stroke="#006C9D" stroke-width="2" stroke-miterlimit="10" stroke-linecap="round" stroke-linejoin="round"/>
</g>
<g id="g1612">
<path id="path1614" d="M35 11.9719V1.17192" stroke="#006C9D" stroke-width="2" stroke-miterlimit="10" stroke-linecap="round" stroke-linejoin="round"/>
</g>
<g id="g1616">
<path id="path1618" d="M43.2476 7.99854H34.9998V2.42182H43.2476L40.9038 5.21018L43.2476 7.99854Z" stroke="#006C9D" stroke-width="2" stroke-miterlimit="10" stroke-linecap="round" stroke-linejoin="round"/>
</g>
</g>
</g>
</g>
</g>
<g id="g1620">
<path id="path1622" d="M30.3148 20.0001L25.8164 27.7095" stroke="#006C9D" stroke-width="2" stroke-miterlimit="10" stroke-linecap="round" stroke-linejoin="round"/>
</g>
<g id="g1624">
<path id="path1626" d="M44.1828 27.7095L39.6843 20.0001" stroke="#006C9D" stroke-width="2" stroke-miterlimit="10" stroke-linecap="round" stroke-linejoin="round"/>
</g>
</g>
</g>
</svg>
