<svg width="56" height="56" viewBox="0 0 56 56" fill="none" xmlns="http://www.w3.org/2000/svg">
<g id="Group 104">
<circle id="Ellipse 4" cx="20" cy="36" r="20" fill="#2DBAD4" fill-opacity="0.5"/>
<g id="Group 99">
<path id="path2370" d="M34.9995 22.2449C35.6506 22.2449 36.2745 21.6723 36.2443 21.0001C36.2141 20.3256 35.6974 19.7552 34.9995 19.7552C34.3484 19.7552 33.7246 20.3278 33.7547 21.0001C33.7849 21.6745 34.3017 22.2449 34.9995 22.2449Z" fill="#006C9D"/>
<path id="path2366" d="M40.0369 21C40.0369 23.7818 37.7818 26.0369 35.0001 26.0369C32.2182 26.0369 29.9631 23.7818 29.9631 21C29.9631 18.2182 32.2182 15.9632 35.0001 15.9632C37.7818 15.9632 40.0369 18.2182 40.0369 21Z" stroke="#006C9D" stroke-width="2" stroke-miterlimit="10" stroke-linecap="round" stroke-linejoin="round"/>
<path id="path2362" d="M54.9999 21H49.4753" stroke="#006C9D" stroke-width="2" stroke-miterlimit="10" stroke-linecap="round" stroke-linejoin="round"/>
<path id="path2358" d="M35 41V35.4754" stroke="#006C9D" stroke-width="2" stroke-miterlimit="10" stroke-linecap="round" stroke-linejoin="round"/>
<path id="path2354" d="M15 21H20.5246" stroke="#006C9D" stroke-width="2" stroke-miterlimit="10" stroke-linecap="round" stroke-linejoin="round"/>
<path id="path2350" d="M35 1.00009V6.52466" stroke="#006C9D" stroke-width="2" stroke-miterlimit="10" stroke-linecap="round" stroke-linejoin="round"/>
<path id="path2346" d="M52.2376 21.0001C52.2376 30.5202 44.52 38.2378 35 38.2378C25.4798 38.2378 17.7622 30.5202 17.7622 21.0001C17.7622 11.48 25.4798 3.76244 35 3.76244C44.52 3.76244 52.2376 11.48 52.2376 21.0001Z" stroke="#006C9D" stroke-width="2" stroke-miterlimit="10" stroke-linejoin="round"/>
<path id="path2374" d="M35 15.9631V13.4447" stroke="#006C9D" stroke-width="2" stroke-miterlimit="10" stroke-linecap="round" stroke-linejoin="round"/>
<path id="path2378" d="M29.9628 20.9995H27.4443" stroke="#006C9D" stroke-width="2" stroke-miterlimit="10" stroke-linecap="round" stroke-linejoin="round"/>
<path id="path2382" d="M34.9993 26.037V28.5554" stroke="#006C9D" stroke-width="2" stroke-miterlimit="10" stroke-linecap="round" stroke-linejoin="round"/>
<path id="path2386" d="M40.0366 21.0005H42.555" stroke="#006C9D" stroke-width="2" stroke-miterlimit="10" stroke-linecap="round" stroke-linejoin="round"/>
</g>
</g>
</svg>
