<svg width="56" height="56" viewBox="0 0 56 56" fill="none" xmlns="http://www.w3.org/2000/svg">
<g id="Group 103">
<circle id="Ellipse 4" cx="20" cy="36" r="20" fill="#2DBAD4" fill-opacity="0.5"/>
<g id="Group 101">
<path id="path1629" d="M35 33.946C27.8615 33.946 22.054 28.1385 22.054 21C22.054 13.8615 27.8615 8.05393 35 8.05393C42.1385 8.05393 47.9461 13.8615 47.9461 21C47.9461 28.1385 42.1385 33.946 35 33.946Z" stroke="#006C9D" stroke-width="2" stroke-miterlimit="10" stroke-linecap="round" stroke-linejoin="round"/>
<path id="path1633" d="M34.9999 26.4773C31.9797 26.4773 29.5227 24.0203 29.5227 21.0001C29.5227 17.98 31.9797 15.5229 34.9999 15.5229C38.02 15.5229 40.4771 17.98 40.4771 21.0001C40.4771 24.0203 38.02 26.4773 34.9999 26.4773Z" stroke="#006C9D" stroke-width="2" stroke-miterlimit="10" stroke-linecap="round" stroke-linejoin="round"/>
<path id="path1637" d="M35 21L44.1543 11.8457" stroke="#006C9D" stroke-width="2" stroke-miterlimit="10" stroke-linecap="round" stroke-linejoin="round"/>
<path id="path1641" d="M54.306 6.97535L49.0247 12.2566L44.1541 11.8458L43.7434 6.97535L49.0247 1.69402L49.4354 6.56456L54.306 6.97535Z" stroke="#006C9D" stroke-width="2" stroke-miterlimit="10" stroke-linecap="round" stroke-linejoin="round"/>
<path id="path1645" d="M51.5349 9.74647L49.0247 12.2565L44.1542 11.8458L43.7435 6.97527L46.2535 4.46514C43.0475 2.27892 39.1733 0.999999 35 0.999999C23.9543 0.999999 15 9.95435 15 21C15 32.0457 23.9543 41 35 41C46.0456 41 55 32.0457 55 21C55 16.8267 53.7211 12.9525 51.5349 9.74647Z" stroke="#006C9D" stroke-width="2" stroke-miterlimit="10" stroke-linecap="round" stroke-linejoin="round"/>
</g>
</g>
</svg>
