<svg width="23" height="31" viewBox="0 0 23 31" fill="none" xmlns="http://www.w3.org/2000/svg">
<g id="Group">
<path id="Vector" d="M11.4991 31C8.4502 30.9964 5.52722 29.8117 3.37146 27.7057C1.2157 25.5997 0.00321541 22.7445 0 19.7664V8.09035C0.00275579 5.94548 0.876295 3.88923 2.42903 2.37258C3.98177 0.855929 6.08695 0.00269174 8.28285 0H14.7154C16.9116 0.00224314 19.0172 0.855283 20.5704 2.37198C22.1235 3.88868 22.9972 5.94519 23 8.09035V19.7664C22.9963 22.7446 21.7835 25.5999 19.6274 27.7058C17.4714 29.8117 14.5482 30.9964 11.4991 31ZM8.28285 1.01723C6.36301 1.01947 4.52246 1.76539 3.16493 3.09137C1.8074 4.41736 1.04373 6.21513 1.04143 8.09035V19.7664C1.02359 21.119 1.28093 22.4616 1.79852 23.7163C2.31611 24.971 3.08364 26.1127 4.05658 27.0754C5.02951 28.038 6.18849 28.8024 7.46625 29.3241C8.74401 29.8457 10.1151 30.1144 11.5 30.1144C12.8849 30.1144 14.256 29.8457 15.5338 29.3241C16.8115 28.8024 17.9705 28.038 18.9434 27.0754C19.9164 26.1127 20.6839 24.971 21.2015 23.7163C21.7191 22.4616 21.9764 21.119 21.9586 19.7664V8.09035C21.9563 6.21483 21.1924 4.41681 19.8345 3.09078C18.4766 1.76475 16.6356 1.01902 14.7154 1.01723H8.28285Z" fill="#2DBAD4"/>
<path id="Vector_2" d="M11.4436 11.3032C11.0083 11.3027 10.5909 11.1336 10.2831 10.8329C9.97525 10.5323 9.80211 10.1246 9.80165 9.69936V5.9797C9.79449 5.7648 9.83165 5.5507 9.9109 5.35011C9.99015 5.14952 10.1099 4.96655 10.263 4.81207C10.4161 4.65758 10.5994 4.53474 10.8021 4.45085C11.0048 4.36696 11.2226 4.32373 11.4428 4.32373C11.6629 4.32373 11.8808 4.36696 12.0834 4.45085C12.2861 4.53474 12.4695 4.65758 12.6226 4.81207C12.7757 4.96655 12.8954 5.14952 12.9746 5.35011C13.0539 5.5507 13.091 5.7648 13.0839 5.9797V9.69936C13.0839 10.1244 12.9111 10.5321 12.6036 10.8328C12.296 11.1336 11.8788 11.3027 11.4436 11.3032ZM11.4436 5.39309C11.2844 5.39309 11.1316 5.4549 11.019 5.56491C10.9064 5.67492 10.8431 5.82412 10.8431 5.9797V9.69936C10.8387 9.77893 10.851 9.85854 10.8791 9.93333C10.9073 10.0081 10.9507 10.0765 11.0068 10.1344C11.063 10.1922 11.1306 10.2383 11.2055 10.2698C11.2805 10.3012 11.3612 10.3175 11.4428 10.3175C11.5244 10.3175 11.6051 10.3012 11.68 10.2698C11.755 10.2383 11.8226 10.1922 11.8787 10.1344C11.9348 10.0765 11.9783 10.0081 12.0064 9.93333C12.0346 9.85854 12.0468 9.77893 12.0425 9.69936V5.9797C12.0425 5.82441 11.9794 5.67547 11.8672 5.56551C11.7549 5.45555 11.6026 5.39354 11.4436 5.39309Z" fill="#2DBAD4"/>
<path id="Vector_3" d="M11.546 16.3298H11.4922C8.55536 16.3298 5.81119 15.9093 3.76304 15.1583C0.649162 14.019 -0.00173226 12.4321 3.45796e-06 11.3013H1.04143C1.04143 12.7661 2.71987 13.6884 4.12928 14.2055C6.06287 14.9124 8.67859 15.3058 11.4939 15.3108H11.546C14.3422 15.3108 16.9371 14.9277 18.8603 14.2309C20.2732 13.7223 21.9551 12.8017 21.9586 11.3386H23C23 12.4694 22.3404 14.0512 19.2231 15.182C17.1871 15.9229 14.462 16.3298 11.546 16.3298Z" fill="#2DBAD4"/>
<path id="Vector_4" d="M10.9021 10.9573H11.9435V15.7111H10.9021V10.9573Z" fill="#2DBAD4"/>
<path id="Vector_5" d="M11 0H12.0414V4.75384H11V0Z" fill="#2DBAD4"/>
</g>
</svg>
