<svg width="24" height="24" viewBox="0 0 24 24" fill="none" xmlns="http://www.w3.org/2000/svg">
<g id="Group 116">
<path id="Vector" d="M11.9912 22.4109C17.7973 22.4109 22.504 17.7042 22.504 11.8982C22.504 6.09221 17.7973 1.3855 11.9912 1.3855C6.18522 1.3855 1.47852 6.09221 1.47852 11.8982C1.47852 17.7042 6.18522 22.4109 11.9912 22.4109Z" fill="white"/>
<path id="Vector_2" d="M12 24C5.38252 24 0 18.6175 0 12C0 5.38252 5.38252 0 12 0C18.6175 0 24 5.38252 24 12C24 18.6175 18.6175 24 12 24ZM16.0457 7.12652C15.5544 7.12652 15.156 7.5249 15.156 8.01623C15.156 8.50756 15.5544 8.90594 16.0457 8.90594C16.5371 8.90594 16.9355 8.50756 16.9355 8.01623C16.9355 7.5249 16.5371 7.12652 16.0457 7.12652ZM12.0974 8.26411C10.0391 8.26411 8.36592 9.93729 8.36592 11.9956C8.36592 14.0539 10.0391 15.727 12.0974 15.727C14.1557 15.727 15.8288 14.0539 15.8288 11.9956C15.8288 9.93729 14.1557 8.26411 12.0974 8.26411ZM12.0974 14.3858C10.7783 14.3858 9.70712 13.3146 9.70712 11.9956C9.70712 10.6765 10.7783 9.60531 12.0974 9.60531C13.4165 9.60531 14.4876 10.6765 14.4876 11.9956C14.4876 13.3146 13.4165 14.3858 12.0974 14.3858ZM19.6267 8.89709C19.6267 6.38288 17.5906 4.34674 15.0764 4.34674H9.06972C6.55552 4.34674 4.51937 6.38288 4.51937 8.89709V14.9037C4.51937 17.4179 6.55552 19.4541 9.06972 19.4541H15.0764C17.5906 19.4541 19.6267 17.4179 19.6267 14.9037V8.89709ZM18.2014 14.9037C18.2014 16.63 16.8027 18.0288 15.0764 18.0288H9.06972C7.34342 18.0288 5.94467 16.63 5.94467 14.9037V8.89709C5.94467 7.17078 7.34342 5.77204 9.06972 5.77204H15.0764C16.8027 5.77204 18.2014 7.17078 18.2014 8.89709V14.9037Z" fill="#2DBAD4"/>
</g>
</svg>
