<svg width="24" height="24" viewBox="0 0 24 24" fill="none" xmlns="http://www.w3.org/2000/svg">
<g id="Group 118">
<path id="Vector" d="M12 24C5.38219 24 0 18.6178 0 12C0 5.38219 5.38219 0 12 0C18.6178 0 24 5.38219 24 12C24 18.6178 18.6178 24 12 24Z" fill="#2DBAD4"/>
<path id="Vector_2" d="M18.8993 7.62052C18.4551 7.82279 17.967 7.94151 17.4878 8.02506C17.7164 7.98548 18.0506 7.57655 18.1869 7.40945C18.3936 7.15441 18.5607 6.86419 18.6574 6.55199C18.6706 6.52561 18.6794 6.49483 18.6574 6.47724C18.6266 6.46405 18.609 6.47284 18.5827 6.48164C18.0462 6.76746 17.4921 6.97852 16.9029 7.12363C16.8546 7.13682 16.8194 7.12363 16.7886 7.09285C16.7402 7.03569 16.6919 6.98732 16.6435 6.94334C16.3972 6.73228 16.129 6.56518 15.83 6.44646C15.4386 6.28816 15.0077 6.21781 14.5812 6.24419C14.1679 6.27057 13.7633 6.3893 13.3983 6.57838C13.0334 6.77186 12.7036 7.03569 12.4441 7.35668C12.1759 7.69087 11.978 8.08222 11.8725 8.49996C11.7758 8.90011 11.7846 9.30025 11.8417 9.70479C11.8505 9.77075 11.8417 9.77955 11.7846 9.77075C9.48042 9.42777 7.56763 8.60109 6.01542 6.83341C5.94946 6.75866 5.90988 6.75866 5.85712 6.83781C5.17995 7.85357 5.50974 9.48933 6.354 10.294C6.46833 10.3996 6.58266 10.5095 6.71018 10.6062C6.66621 10.615 6.09896 10.5535 5.59768 10.294C5.53172 10.2501 5.49655 10.2764 5.49215 10.3512C5.48775 10.4611 5.49215 10.5623 5.50974 10.681C5.64165 11.7143 6.354 12.6685 7.33458 13.0379C7.44891 13.0863 7.58083 13.1302 7.70395 13.1522C7.47969 13.2006 7.25104 13.2358 6.61344 13.1874C6.53429 13.1742 6.50351 13.2138 6.53429 13.2885C7.01359 14.5989 8.05133 14.9859 8.82964 15.2101C8.93517 15.2277 9.0363 15.2277 9.14184 15.2541C9.13744 15.2629 9.12865 15.2629 9.12425 15.2717C8.86481 15.663 7.97218 15.9576 7.55884 16.1027C6.80252 16.3666 5.98024 16.4853 5.17995 16.4062C5.05243 16.3886 5.02604 16.3886 4.99087 16.4062C4.95569 16.4281 4.98647 16.4589 5.02604 16.4897C5.18874 16.5952 5.35144 16.692 5.52293 16.7843C6.02861 17.0525 6.56067 17.268 7.11472 17.4219C9.97291 18.209 13.1917 17.633 15.3375 15.5003C17.0216 13.825 17.6109 11.5164 17.6109 9.20791C17.6109 9.11557 17.7164 9.0672 17.7824 9.01883C18.2221 8.68904 18.5695 8.29329 18.8949 7.85357C18.9696 7.75683 18.9652 7.66889 18.9652 7.62931V7.61612C18.9652 7.58094 18.9696 7.58973 18.9124 7.61612L18.8993 7.62052Z" fill="white"/>
<path id="Vector_3" fill-rule="evenodd" clip-rule="evenodd" d="M9.58594 17.7251C9.58594 17.7031 9.83312 17.7251 9.58594 17.7251C9.58594 17.7119 9.61684 17.7251 9.58594 17.7251Z" fill="white"/>
<path id="Vector_4" fill-rule="evenodd" clip-rule="evenodd" d="M14.538 6.25732C14.538 6.25732 14.5023 6.27076 14.48 6.25732H14.538Z" fill="white"/>
</g>
</svg>
