<svg width="24" height="24" viewBox="0 0 24 24" fill="none" xmlns="http://www.w3.org/2000/svg">
<g id="Group 114">
<path id="Vector" d="M12 24C5.38219 24 0 18.6178 0 12C0 5.38219 5.38219 0 12 0C18.6178 0 24 5.38219 24 12C24 18.6178 18.6178 24 12 24Z" fill="#2DBAD4"/>
<path id="Vector_2" fill-rule="evenodd" clip-rule="evenodd" d="M10.1181 12.0571V19.0135C10.1181 19.1146 10.1972 19.1938 10.2984 19.1938H12.8795C12.9807 19.1938 13.0598 19.1146 13.0598 19.0135V11.9428H14.933C15.0254 11.9428 15.1045 11.8724 15.1133 11.7757L15.2936 9.64743C15.3024 9.54189 15.2189 9.44955 15.1133 9.44955H13.0598V7.93691C13.0598 7.58074 13.3456 7.29492 13.7018 7.29492H15.1441C15.2452 7.29492 15.3244 7.21577 15.3244 7.11463V4.98638C15.3244 4.88524 15.2452 4.80609 15.1441 4.80609H12.7037C11.2746 4.80609 10.1137 5.96696 10.1137 7.39605V9.44955H8.82091C8.71977 9.44955 8.64062 9.5287 8.64062 9.62984V11.7581C8.64062 11.8592 8.71977 11.9384 8.82091 11.9384H10.1137V12.0527L10.1181 12.0571Z" fill="white"/>
</g>
</svg>
