<svg width="24" height="24" viewBox="0 0 24 24" fill="none" xmlns="http://www.w3.org/2000/svg">
<g id="Group 117">
<path id="Vector" d="M12 24C5.38219 24 0 18.6188 0 12.0022C0 5.3856 5.38219 0 12 0C18.6178 0 24 5.38121 24 11.9978C24 18.6144 18.6178 23.9956 12 23.9956V24Z" fill="#2DBAD4"/>
<path id="Vector_2" d="M19.1895 10.1779C19.1895 8.47648 17.8088 7.09601 16.1071 7.09601H8.11296C6.41124 7.09601 5.03052 8.47648 5.03052 10.1779V13.9236C5.03052 15.625 6.41124 17.0055 8.11296 17.0055H16.1071C17.8088 17.0055 19.1895 15.625 19.1895 13.9236V10.1779ZM14.1459 12.2398L10.958 13.9896C10.8173 14.0643 10.6941 13.9632 10.6941 13.8049V10.2175C10.6941 10.0592 10.8216 9.95807 10.9624 10.0372L14.1723 11.8793C14.313 11.9584 14.291 12.1651 14.1459 12.2442V12.2398Z" fill="white"/>
</g>
</svg>
