<svg width="24" height="24" viewBox="0 0 24 24" fill="none" xmlns="http://www.w3.org/2000/svg">
<g id="Group 115">
<path id="Vector" d="M12 24C5.38569 24 0 18.6187 0 12C0 5.38128 5.38128 0 12 0C18.6187 0 24 5.38128 24 12C24 18.6187 18.6187 24 12 24Z" fill="#2DBAD4"/>
<path id="Vector_2" d="M18.7816 12.9156V17.3941C18.7816 17.5042 18.6935 17.5967 18.579 17.5967H16.2671C16.157 17.5967 16.0645 17.5086 16.0645 17.3941V13.2282C16.0645 12.1317 15.6726 11.3831 14.6905 11.3831C13.9419 11.3831 13.4971 11.8851 13.299 12.3739C13.2285 12.5501 13.2109 12.7923 13.2109 13.0345V17.3941C13.2109 17.5042 13.1228 17.5967 13.0083 17.5967H10.6964C10.5863 17.5967 10.4938 17.5086 10.4938 17.3941C10.4983 16.2844 10.5203 10.9031 10.4982 9.63485C10.4982 9.52475 10.5863 9.43228 10.6964 9.43228H13.0039C13.114 9.43228 13.2065 9.52035 13.2065 9.63485V10.5904C13.2065 10.5904 13.1933 10.6081 13.1889 10.6169H13.2065V10.5904C13.5676 10.0356 14.2105 9.24292 15.6505 9.24292C17.434 9.24292 18.7727 10.4099 18.7727 12.9156H18.7816ZM6.4865 17.5967H8.79843C8.90852 17.5967 9.001 17.5086 9.001 17.3941V9.63485C9.001 9.52475 8.91293 9.43228 8.79843 9.43228H6.4865C6.37641 9.43228 6.28394 9.52035 6.28394 9.63485V17.3941C6.28394 17.5042 6.37201 17.5967 6.4865 17.5967Z" fill="white"/>
<path id="Vector_3" d="M7.56112 8.393C8.36371 8.393 9.01433 7.74237 9.01433 6.93978C9.01433 6.1372 8.36371 5.48657 7.56112 5.48657C6.75854 5.48657 6.10791 6.1372 6.10791 6.93978C6.10791 7.74237 6.75854 8.393 7.56112 8.393Z" fill="white"/>
</g>
</svg>
